<?xml version="1.0" encoding="UTF-8" standalone="no"?>
<svg
   xmlns:dc="http://purl.org/dc/elements/1.1/"
   xmlns:cc="http://creativecommons.org/ns#"
   xmlns:rdf="http://www.w3.org/1999/02/22-rdf-syntax-ns#"
   xmlns:svg="http://www.w3.org/2000/svg"
   xmlns="http://www.w3.org/2000/svg"
   xmlns:sodipodi="http://sodipodi.sourceforge.net/DTD/sodipodi-0.dtd"
   xmlns:inkscape="http://www.inkscape.org/namespaces/inkscape"
   width="90mm"
   height="70mm"
   viewBox="0 0 90 70"
   version="1.1"
   id="svg2989"
   inkscape:version="1.0.1 (3bc2e813f5, 2020-09-07)"
   sodipodi:docname="logo.svg">
  <defs
     id="defs2983" />
  <sodipodi:namedview
     id="base"
     pagecolor="#ffffff"
     bordercolor="#666666"
     borderopacity="1.0"
     inkscape:pageopacity="0.0"
     inkscape:pageshadow="2"
     inkscape:zoom="2.8"
     inkscape:cx="265.63274"
     inkscape:cy="157.25383"
     inkscape:document-units="mm"
     inkscape:current-layer="layer1"
     inkscape:document-rotation="0"
     showgrid="false"
     inkscape:window-width="1920"
     inkscape:window-height="1027"
     inkscape:window-x="-8"
     inkscape:window-y="-8"
     inkscape:window-maximized="1" />
  <metadata
     id="metadata2986">
    <rdf:RDF>
      <cc:Work
         rdf:about="">
        <dc:format>image/svg+xml</dc:format>
        <dc:type
           rdf:resource="http://purl.org/dc/dcmitype/StillImage" />
        <dc:title></dc:title>
      </cc:Work>
    </rdf:RDF>
  </metadata>
  <g
     inkscape:label="Layer 1"
     inkscape:groupmode="layer"
     id="layer1">
    <g
       id="g3097">
      <path
         id="text2993"
         style="font-style:normal;font-variant:normal;font-weight:normal;font-stretch:normal;font-size:25.4px;line-height:1.25;font-family:Impact;-inkscape-font-specification:Impact;fill:#000000;fill-opacity:1;stroke:none;stroke-width:0.264583"
         d="m 77.705982,17.939517 c -0.04345,-2.64e-4 -0.08682,0.0037 -0.130225,0.0067 0.01908,0.0051 0.03781,0.01164 0.05685,0.01654 0.02479,0.0064 0.09908,-0.02307 0.07338,-0.02326 z m -0.282154,0.01394 c -0.01326,7.94e-4 -0.02653,5.29e-4 -0.03979,0.0016 0.03779,0.0078 0.0741,0.0176 0.112655,0.02429 -0.01762,-0.0062 -0.05659,-0.02003 -0.07286,-0.02582 z M 7.0674003,18.66246 9.8083196,33.780918 c 0.1984374,1.116211 0.2976564,1.682583 0.2976564,1.699119 0,0.231511 -0.08268,0.405144 -0.2480471,0.520899 -0.1570963,0.107487 -0.578776,0.161232 -1.265039,0.161232 H 8.28283 v 2.592088 h 3.050977 c 1.686718,0 2.898015,-0.181901 3.633888,-0.545703 0.735872,-0.363802 1.231966,-0.967383 1.488281,-1.810742 0.256315,-0.851628 0.496094,-2.327505 0.719336,-4.427635 L 18.60158,18.66246 H 14.049921 L 13.256171,31.164022 11.606658,18.66246 Z m 12.5759767,0 v 20.091796 h 5.233789 V 22.680819 h 3.832326 V 18.66246 Z m 25.648047,0 v 0.607716 c 0,3.183268 -0.181901,6.118489 -0.545704,8.805664 -0.355533,2.678906 -0.814419,4.841046 -1.376658,6.486424 H 42.30246 v 7.652247 h 3.59668 v -3.460244 h 8.433593 v 3.460255 h 3.609081 V 34.53747 h -1.066602 v -15.875 z m 27.173536,0 v 20.091796 h 4.576463 l 2.716115,-9.140526 v 9.140526 h 4.365625 V 18.66246 h -4.365625 l -2.926953,9.066114 V 18.66247 Z M 31.574432,18.67487 28.92033,38.754262 h 5.407422 l 0.31006,-3.60908 h 1.872752 l 0.260451,3.60908 h 5.345409 L 39.12746,18.674869 Z m 29.455567,0 -2.654102,20.079392 h 5.407422 l 0.310057,-3.60908 h 1.872756 l 0.260448,3.60908 h 5.345411 L 68.583025,18.674869 Z m -10.938867,3.956346 h 1.550291 v 11.90625 h -2.790525 c 0.826822,-3.993555 1.240234,-7.912696 1.240234,-11.757422 z m -14.523146,0.533302 c 0.264584,3.340364 0.529167,6.147427 0.79375,8.42119 h -1.785937 c 0.132291,-1.777669 0.463021,-4.584732 0.992187,-8.42119 z m 29.455568,0 c 0.264583,3.340364 0.529166,6.147427 0.79375,8.42119 h -1.785938 c 0.132292,-1.777669 0.463021,-4.584732 0.992188,-8.42119 z" />
      <text
         xml:space="preserve"
         style="font-style:normal;font-variant:normal;font-weight:normal;font-stretch:normal;font-size:25.4px;line-height:1.25;font-family:Impact;-inkscape-font-specification:Impact;fill:#000000;fill-opacity:1;stroke:none;stroke-width:0.264583"
         x="4.3250799"
         y="59.693398"
         id="text2997"><tspan
           sodipodi:role="line"
           id="tspan2995"
           x="4.3250799"
           y="59.693398"
           style="font-style:normal;font-variant:normal;font-weight:normal;font-stretch:normal;font-size:25.4px;font-family:Impact;-inkscape-font-specification:Impact;stroke-width:0.264583">ГДЕ</tspan></text>
      <path
         style="fill:#fd003a;stroke-width:0.0354107"
         d="m 78.387854,0.68944148 c -3.56686,0 -6.46549,2.81718992 -6.46549,6.28367992 0,1.17295 0.33413,2.31453 0.96986,3.2989696 l 5.05735,8.04361 c 0.0863,0.13614 0.21558,0.21996 0.36648,0.2409 0.20467,0.0313 0.43107,-0.0524 0.54957,-0.25134 l 5.07182,-8.11699 c 0.60337,-0.9634596 0.91591,-2.0840496 0.91591,-3.2151496 0,-3.46649 -2.89863,-6.28367992 -6.4655,-6.28367992 z m 0,9.42551952 c -1.81026,0 -3.23274,-1.4242996 -3.23274,-3.1418396 0,-1.72805 1.4547,-3.14184 3.23274,-3.14184 1.77805,0 3.23275,1.41379 3.23275,3.14184 0,1.70707 -1.40089,3.1418396 -3.23275,3.1418396 z"
         id="path2" />
    </g>
  </g>
</svg>
